/* XPM */
static char *close_pressed[] = {
/* columns rows colors chars-per-pixel */
"18 18 32 1 ",
"  c #BE575E",
". c #BF575E",
"X c #BF575F",
"o c #8D7B73",
"O c #8B7D74",
"+ c #897E75",
"@ c #8A7E75",
"# c #8C7C74",
"$ c #AF6365",
"% c #B16164",
"& c #B06264",
"* c #B06265",
"= c #B16265",
"- c #CD4D59",
"; c #D54755",
": c #DA4453",
"> c #D34956",
", c #D24A56",
"< c #D44855",
"1 c #D54855",
"2 c #C1565D",
"3 c #C0575D",
"4 c #C0565E",
"5 c #C1565E",
"6 c #C9505A",
"7 c #CA505A",
"8 c #7F8579",
"9 c #7D867A",
"0 c #7F867A",
"q c #798A7C",
"w c #808579",
"e c #709080",
/* pixels */
"eeeeeo%7;;6=#eeeee",
"eee84::::::::3weee",
"ee@>::::::::::>+ee",
"e8>::::::::::::>0e",
"e :::-::::::-:::4e",
"o:::-q.::::.q-:::#",
"&::::2qX::5qX::::*",
"7:::::2qX5qX:::::6",
"1::::::.qq.::::::1",
"1::::::.qq.::::::<",
"7:::::5qX2qX:::::6",
"%::::5qX::2qX::::$",
"#:::-q.::::.q-:::O",
"eX:::-::::::-:::3e",
"e9,::::::::::::>0e",
"ee+>::::::::::>+ee",
"eeew.:::::::: 0eee",
"eeeee#*6116*Oeeeee"
};
