/* XPM */
static char *close_prelight[] = {
/* columns rows colors chars-per-pixel */
"18 18 32 1 ",
"  c #C7767D",
". c #C6777D",
"X c #C5777E",
"o c #C7767E",
"O c #C6777E",
"+ c #DB717C",
"@ c #DB707D",
"# c #DA727D",
"$ c #DC707D",
"% c #DD707D",
"& c #DD717D",
"* c #ED6B7C",
"= c #E96C7D",
"- c #E86D7D",
"; c #E96D7D",
": c #FF667C",
"> c #F4697C",
", c #F5697C",
"< c #F7687C",
"1 c #F8687C",
"2 c #F9687C",
"3 c #7C8C7F",
"4 c #838A7F",
"5 c #858A7F",
"6 c #92857F",
"7 c #93867F",
"8 c #95857F",
"9 c #96857F",
"0 c #97857F",
"q c #7C8D80",
"w c #709080",
"e c #848A80",
/* pixels */
"wwwww0 =22;O9wwwww",
"www5$::::::::$5www",
"ww7,::::::::::,6ww",
"w5,::::::::::::,ew",
"w+:::*::::::*:::$w",
"0:::*3@::::@3*:::9",
"o::::%q#::&q#::::.",
"=:::::%q#&q#:::::;",
"1::::::@33@::::::1",
"1::::::@33@::::::<",
"=:::::&q#%q#:::::-",
" ::::&q#::%q#::::X",
"9:::*3@::::@3*:::8",
"w#:::*::::::*:::$w",
"w4>::::::::::::,ew",
"ww6,::::::::::,6ww",
"www5@::::::::+ewww",
"wwwww9.-11-.8wwwww"
};
