/* XPM */
static char *close_prelight[] = {
/* columns rows colors chars-per-pixel */
"18 18 33 1 ",
"  c #C7767D",
". c #C6777D",
"X c #C5777E",
"o c #C7767E",
"O c #C6777E",
"+ c #DB717C",
"@ c #DB707D",
"# c #DA727D",
"$ c #DC707D",
"% c #E96C7D",
"& c #E86D7D",
"* c #E96D7D",
"= c #FF667C",
"- c #F4697C",
"; c #F5697C",
": c #F7687C",
"> c #F8687C",
", c #F9687C",
"< c #838A7F",
"1 c #858A7F",
"2 c #92857F",
"3 c #93867F",
"4 c #95857F",
"5 c #96857F",
"6 c #97857F",
"7 c #FF798C",
"8 c #709080",
"9 c #848A80",
"0 c #FF8A9B",
"q c #FF8B9B",
"w c #FF8C9D",
"e c #FF8E9E",
"r c #FFF2F4",
/* pixels */
"888886 %,,*O588888",
"8881$========$1888",
"883;==========;288",
"81;============;98",
"8+===7======7===$8",
"6===7rw====wr7===5",
"o====0re==qre====.",
"%=====0reqre=====*",
">======wrrw======>",
">======wrrw======:",
"%=====qre0re=====&",
" ====qre==0re====X",
"5===7rw====wr7===4",
"8#===7======7===$8",
"8<-============;98",
"882;==========;288",
"8881@========+9888",
"888885.&>>&.488888"
};
