/* XPM */
static char *close_pressed[] = {
/* columns rows colors chars-per-pixel */
"18 18 35 1 ",
"  c #BE575E",
". c #BF575E",
"X c #BF575F",
"o c #8D7B73",
"O c #8B7D74",
"+ c #897E75",
"@ c #8A7E75",
"# c #8C7C74",
"$ c #AF6365",
"% c #B16164",
"& c #B06264",
"* c #B06265",
"= c #B16265",
"- c #D54755",
"; c #DA4453",
": c #D34956",
"> c #D24A56",
", c #D44855",
"< c #D54855",
"1 c #C0575D",
"2 c #C0565E",
"3 c #C9505A",
"4 c #CA505A",
"5 c #DF5B69",
"6 c #E3707B",
"7 c #E3717C",
"8 c #E3737E",
"9 c #7F8579",
"0 c #7D867A",
"q c #7F867A",
"w c #808579",
"e c #E47480",
"r c #709080",
"t c #FCEFF0",
"y c #FCF0F1",
/* pixels */
"rrrrro%4--3=#rrrrr",
"rrr92;;;;;;;;1wrrr",
"rr@:;;;;;;;;;;:+rr",
"r9:;;;;;;;;;;;;:qr",
"r ;;;5;;;;;;5;;;2r",
"o;;;5y8;;;;8y5;;;#",
"&;;;;6te;;7te;;;;*",
"4;;;;;6te7te;;;;;3",
"<;;;;;;8yy8;;;;;;<",
"<;;;;;;8yy8;;;;;;,",
"4;;;;;7te6te;;;;;3",
"%;;;;7te;;6te;;;;$",
"#;;;5y8;;;;8y5;;;O",
"rX;;;5;;;;;;5;;;1r",
"r0>;;;;;;;;;;;;:qr",
"rr+:;;;;;;;;;;:+rr",
"rrrw.;;;;;;;; qrrr",
"rrrrr#*3<<3*Orrrrr"
};
