/* XPM */
static char * close_inactive_xpm[] = {
"18 18 39 1",
" 	c None",
".	c #31363B",
"+	c #535D65",
"@	c #7D848A",
"#	c #B1B6B9",
"$	c #D7D9DB",
"%	c #E8E9EB",
"&	c #697278",
"*	c #C9CDCF",
"=	c #EFF0F1",
"-	c #767E85",
";	c #E5E7E8",
">	c #687177",
",	c #646D73",
"'	c #C9CCCE",
")	c #C7CACC",
"!	c #C1C5C8",
"~	c #C0C4C7",
"{	c #7B8287",
"]	c #4E575D",
"^	c #BBBFC1",
"/	c #B0B5B8",
"(	c #AFB4B8",
"_	c #D6D8DB",
":	c #E8E9EA",
"<	c #D6D8DA",
"[	c #AEB3B6",
"}	c #777E83",
"|	c #C8CBCD",
"1	c #626B71",
"2	c #E5E6E8",
"3	c #E4E6E7",
"4	c #71777E",
"5	c #E4E5E7",
"6	c #61696F",
"7	c #757B80",
"8	c #ACB1B4",
"9	c #D5D7D9",
"0	c #E7E9EA",
"....+@#$%%$#@.....",
"...&*========*&...",
"..-;==========;-..",
".>;============;,.",
".'==)!======~)=='.",
"{===~]^====^]!==={",
"/====^]^==^]^====(",
"_=====^]^^]^=====_",
":======^..^======:",
":======^..^======:",
"<=====^]^^]^=====<",
"[====^]^==^]^====[",
"}===!]^====^]~===}",
".|==)~======!)==).",
".12============31.",
"..42==========54..",
"...6)========)6...",
".....78900987....."};
