/* XPM */
static char * hide_inactive_xpm[] = {
"18 18 13 1",
" 	c None",
".	c #31363B",
"+	c #747C83",
"@	c #7A8187",
"#	c #7B8288",
"$	c #E8EAEB",
"%	c #7F868D",
"&	c #798086",
"*	c #7F868C",
"=	c #7E858B",
"-	c #7E858A",
";	c #EFF0F1",
">	c #7D848A",
"..................",
"..................",
"..................",
"..................",
"..................",
"..................",
"...+@........#+...",
"...@$%......%$&...",
"....*$*....*$*....",
".....=$=..=$=.....",
"......=$==$=......",
".......-;;-.......",
"........>>........",
"..................",
"..................",
"..................",
"..................",
".................."};
