/* XPM */
static char *maximize_toggled_active[] = {
/* columns rows colors chars-per-pixel */
"18 18 7 1 ",
"  c #709080",
". c #739282",
"X c #739383",
"o c #749383",
"O c #C7D2CC",
"+ c #C8D2CD",
"@ c #CBD5D0",
/* pixels */
"                  ",
"                  ",
"                  ",
"        XX        ",
"       X++X       ",
"      X++++X      ",
"     .O@o.O@o     ",
"    .O@o  .O@o    ",
"   X++X    X++X   ",
"   X++X    X++X   ",
"    .O@o  .O@o    ",
"     .O@o.O@o     ",
"      X++++X      ",
"       X++X       ",
"        XX        ",
"                  ",
"                  ",
"                  "
};
