/* XPM */
static char * maximize_toggled_inactive_xpm[] = {
"18 18 15 1",
" 	c None",
".	c #31363B",
"+	c #E9EBEC",
"@	c #EFF0F1",
"#	c #C6CACC",
"$	c #CDD0D3",
"%	c #C6C9CC",
"&	c #D8DADC",
"*	c #CCCFD1",
"=	c #CBCFD1",
"-	c #C5C9CC",
";	c #C5C9CB",
">	c #C5C8CB",
",	c #CBCED1",
"'	c #D7DADC",
"..................",
"..................",
"..................",
"..................",
"........+@........",
".......#$$#.......",
"......%%..%%......",
".....%%....%%.....",
"....&*......*&....",
"....&=......=&....",
".....--....--.....",
"......;;..;;......",
".......>,,>.......",
"........''........",
"..................",
"..................",
"..................",
".................."};
