/* XPM */
static char *maximize_inactive[] = {
/* columns rows colors chars-per-pixel */
"18 18 8 1 ",
"  c gray21",
". c #404140",
"X c #484948",
"o c #484A49",
"O c #494B4A",
"+ c #4A4B4A",
"@ c #7C827D",
"# c #7E827F",
/* pixels */
"                  ",
"                  ",
"                  ",
"                  ",
"                  ",
"        OO        ",
"       O##O       ",
"      o@+X@+      ",
"     o@+  X@+     ",
"    o@+    X@+    ",
"   .#O      O#.   ",
"    .        .    ",
"                  ",
"                  ",
"                  ",
"                  ",
"                  ",
"                  "
};
