/* XPM */
static char * maximize_inactive_xpm[] = {
"18 18 14 1",
" 	c None",
".	c #31363B",
"+	c #81878D",
"@	c #80878D",
"#	c #EFF0F1",
"$	c #7F868D",
"%	c #E8EAEB",
"&	c #7F868C",
"*	c #7E858B",
"=	c #787F85",
"-	c #798085",
";	c #727A80",
">	c #788085",
",	c #787F84",
"..................",
"..................",
"..................",
"..................",
"..................",
"........++........",
".......@##@.......",
"......$%$$%$......",
".....&%&..&%&.....",
"....*%*....*%*....",
"...=%*......*%-...",
"...;>........,;...",
"..................",
"..................",
"..................",
"..................",
"..................",
".................."};
