/* XPM */
static char *maximize_toggled_prelight[] = {
/* columns rows colors chars-per-pixel */
"18 18 34 1 ",
"  c #709080",
". c #819C8E",
"X c #829E90",
"o c #839E90",
"O c #839F91",
"+ c #8EA79B",
"@ c #8FA89C",
"# c #91A99D",
"$ c #92A99D",
"% c #92AA9E",
"& c #93AA9E",
"* c #95ACA0",
"= c #98AEA3",
"- c #BCCAC3",
"; c #BDCAC3",
": c #BDCBC4",
"> c #BECBC4",
", c #CFD8D4",
"< c #D0D8D4",
"1 c #D0D9D4",
"2 c #D0D9D5",
"3 c #DBE1DF",
"4 c #DCE1DE",
"5 c #DCE2DF",
"6 c #E6E8E7",
"7 c #E7E9E8",
"8 c #E7EAE9",
"9 c #E9EBEA",
"0 c #EAEBEB",
"q c #EAECEB",
"w c #ECEDED",
"e c #EDEEED",
"r c #EDEEEE",
"t c gray94",
/* pixels */
"     &;4qq5:%     ",
"   O1tttttttt<o   ",
"  @8tttttttttt8+  ",
" O8ttttteettttt7X ",
" ,ttttte==ettttt1 ",
"&ttttte====ettttt$",
">ttttr=*wr=*wtttt-",
"4tttr=*wttr=*wttt5",
"0tte==etttte==ett0",
"0tte==etttte==ett9",
"4tttr=*wttr=*wttt3",
";ttttr=*wr=*wtttt-",
"%ttttte====ettttt#",
" ,ttttte==ettttt< ",
" .6ttttteettttt7X ",
"  +7tttttttttt7+  ",
"   o2tttttttt,X   ",
"     $-3003-#     "
};
