/* XPM */
static char *maximize_prelight[] = {
/* columns rows colors chars-per-pixel */
"18 18 34 1 ",
"  c #709080",
". c #7B9889",
"X c #7B998A",
"o c #819C8E",
"O c #829E90",
"+ c #839E90",
"@ c #839F91",
"# c #8EA79B",
"$ c #8FA89C",
"% c #91A99D",
"& c #92A99D",
"* c #92AA9E",
"= c #93AA9E",
"- c #BCCAC3",
"; c #BDCAC3",
": c #BDCBC4",
"> c #BECBC4",
", c #CFD8D4",
"< c #D0D8D4",
"1 c #D0D9D4",
"2 c #D0D9D5",
"3 c #D1D9D5",
"4 c #D2D9D6",
"5 c #DBE1DF",
"6 c #DCE1DE",
"7 c #DCE2DF",
"8 c #E0E4E2",
"9 c #E6E8E7",
"0 c #E7E9E8",
"q c #E7EAE9",
"w c #E9EBEA",
"e c #EAEBEB",
"r c #EAECEB",
"t c gray94",
/* pixels */
"     =;6rr7:*     ",
"   @1tttttttt<+   ",
"  $qttttttttttq#  ",
" @qtttttttttttt0O ",
" ,tttttttttttttt1 ",
"=ttttttt22ttttttt&",
">tttttt2..2tttttt-",
"6ttttt3X,4X,ttttt7",
"etttt3X,tt4X,tttte",
"ettt3X,tttt4X,tttw",
"6tt8.2tttttt2.8tt5",
";ttt8tttttttt8ttt-",
"*tttttttttttttttt%",
" ,tttttttttttttt< ",
" o9tttttttttttt0O ",
"  #0tttttttttt0#  ",
"   +2tttttttt,O   ",
"     &-5ee5-%     "
};
