/* XPM */
static char *maximize_active[] = {
/* columns rows colors chars-per-pixel */
"18 18 7 1 ",
"  c #709080",
". c #809C8E",
"X c #8EA79B",
"o c #90A89C",
"O c #91A99D",
"+ c #E5E8E6",
"@ c #E5E8E7",
/* pixels */
"                  ",
"                  ",
"                  ",
"                  ",
"                  ",
"        oo        ",
"       o@@o       ",
"      X+OX+O      ",
"     X+O  X+O     ",
"    X+O    X+O    ",
"   .@o      o@.   ",
"    .        .    ",
"                  ",
"                  ",
"                  ",
"                  ",
"                  ",
"                  "
};
