/* XPM */
static char *maximize_toggled_pressed[] = {
/* columns rows colors chars-per-pixel */
"18 18 32 1 ",
"  c #709080",
". c #799587",
"X c #7A9688",
"o c #7B9689",
"O c #819A8D",
"+ c #819A8E",
"@ c #829A8E",
"# c #839B8F",
"$ c #839B90",
"% c #859C91",
"& c #869D91",
"* c #879D92",
"= c #9AA8A1",
"- c #9BA9A2",
"; c #9CAAA3",
": c #A5AFAB",
"> c #A6AFAB",
", c #A5B0AB",
"< c #A6B0AC",
"1 c #ACB3AF",
"2 c #ACB3B0",
"3 c #ACB4B0",
"4 c #B1B7B5",
"5 c #B2B7B5",
"6 c #B3B7B6",
"7 c #B3B8B6",
"8 c #B4B8B6",
"9 c #B4B8B7",
"0 c #B5B9B7",
"q c #B5B9B8",
"w c #B6B9B8",
"e c #B7BAB9",
/* pixels */
"     #;3991-$     ",
"   o<eeeeeeee,X   ",
"  O6eeeeeeeeee6+  ",
" o6eeeeeqqeeeee5X ",
" >eeeeeq&&qeeeee< ",
"#eeeeeq&&&&qeeeee#",
"-eeeew*%0w*%0eeee-",
"3eeew*%0eew*%0eee1",
"8eeq&&qeeeeq&&qee8",
"8eeq&&qeeeeq&&qee7",
"3eeew*%0eew*%0eee2",
";eeeew*%0w*%0eeee=",
"$eeeeeq&&&&qeeeee@",
" :eeeeeq&&qeeeee, ",
" .4eeeeeqqeeeee5X ",
"  +5eeeeeeeeee5+  ",
"   X:eeeeeeee>X   ",
"     #-2882-@     "
};
