/* XPM */
static char *maximize_toggled_inactive[] = {
/* columns rows colors chars-per-pixel */
"18 18 6 1 ",
"  c gray21",
". c #373837",
"X c #383838",
"o c #6B6F6C",
"O c #6C6F6D",
"+ c #6D716E",
/* pixels */
"                  ",
"                  ",
"                  ",
"        XX        ",
"       XOOX       ",
"      XOOOOX      ",
"     .o+X.o+X     ",
"    .o+X  .o+X    ",
"   XOOX    XOOX   ",
"   XOOX    XOOX   ",
"    .o+X  .o+X    ",
"     .o+X.o+X     ",
"      XOOOOX      ",
"       XOOX       ",
"        XX        ",
"                  ",
"                  ",
"                  "
};
