/* XPM */
static char *shade_pressed[] = {
/* columns rows colors chars-per-pixel */
"18 18 29 1 ",
"  c #709080",
". c #769384",
"X c #769485",
"o c #799587",
"O c #7A9688",
"+ c #7B9689",
"@ c #819A8D",
"# c #819A8E",
"$ c #829A8E",
"% c #839B8F",
"& c #839B90",
"* c #9AA8A1",
"= c #9BA9A2",
"- c #9CAAA3",
"; c #A5AFAB",
": c #A6AFAB",
"> c #A5B0AB",
", c #A6B0AC",
"< c #ACB3AF",
"1 c #ACB3B0",
"2 c #ACB4B0",
"3 c #AFB5B3",
"4 c #B1B7B5",
"5 c #B2B7B5",
"6 c #B3B7B6",
"7 c #B3B8B6",
"8 c #B4B8B6",
"9 c #B4B8B7",
"0 c #B7BAB9",
/* pixels */
"     %-299<=&     ",
"   +,00000000>O   ",
"  @600000000006#  ",
" +60000000000005O ",
" :00000000000000, ",
"%000          000%",
"=0000000000000000=",
"20000000;;0000000<",
"8000000;..;0000008",
"800000,X;:X;000007",
"20000,X;00:X;00001",
"-000,X;0000:X;000*",
"&003.;000000;.300$",
" ;00300000000300> ",
" o40000000000005O ",
"  #500000000005#  ",
"   O;00000000:O   ",
"     %=1881=$     "
};
