/* XPM */
static char * shade_inactive_xpm[] = {
"18 18 17 1",
" 	c None",
".	c #31363B",
"+	c #747C83",
"@	c #A7ACB0",
"#	c #747C82",
"$	c #A7ACAF",
"%	c #7F868D",
"&	c #7F868C",
"*	c #EFF0F1",
"=	c #7E858B",
"-	c #E8EAEB",
";	c #7E858A",
">	c #777E83",
",	c #7D848A",
"'	c #787F84",
")	c #71787E",
"!	c #787E83",
"..................",
"..................",
"..................",
"..................",
"...+@@@@@@@@@@+...",
"...#$$$$$$$$$$#...",
"..................",
"........%%........",
".......&**&.......",
"......=-==-=......",
".....=-=..=-=.....",
"....;-;....;-;....",
"...>-,......,-'...",
"...)!........>)...",
"..................",
"..................",
"..................",
".................."};
