/* XPM */
static char *shade_toggled_inactive[] = {
/* columns rows colors chars-per-pixel */
"18 18 3 1 ",
"  c gray21",
". c #838984",
"X c #848986",
/* pixels */
"                  ",
"                  ",
"                  ",
"                  ",
"                  ",
"    XXXXXXXXXX    ",
"                  ",
"                  ",
"    X        X    ",
"     .      .     ",
"      .    .      ",
"       .  .       ",
"        XX        ",
"                  ",
"                  ",
"                  ",
"                  ",
"                  "
};
