/* XPM */
static char * shade_toggled_inactive_xpm[] = {
"18 18 17 1",
" 	c None",
".	c #31363B",
"+	c #747C83",
"@	c #A7ACB0",
"#	c #747C82",
"$	c #A7ACAF",
"%	c #747B82",
"&	c #798086",
"*	c #7A8187",
"=	c #7A8186",
"-	c #E8EAEB",
";	c #7F868C",
">	c #7E858B",
",	c #7E858A",
"'	c #7D848A",
")	c #EFF0F1",
"!	c #7D8389",
"..................",
"..................",
"..................",
"..................",
"...+@@@@@@@@@@+...",
"...#$$$$$$$$$$#...",
"..................",
"...%&........*%...",
"...=-;......;-&...",
"....>->....>->....",
".....>->..>->.....",
"......,-,,-,......",
".......'))'.......",
"........!!........",
"..................",
"..................",
"..................",
".................."};
