/* XPM */
static char *shade_toggled_active[] = {
/* columns rows colors chars-per-pixel */
"18 18 8 1 ",
"  c #709080",
". c #809C8E",
"X c #8EA79B",
"o c #90A89C",
"O c #91A99D",
"+ c #E5E8E6",
"@ c #E5E8E7",
"# c gray94",
/* pixels */
"                  ",
"                  ",
"                  ",
"                  ",
"                  ",
"    ##########    ",
"                  ",
"    .        .    ",
"   .@o      o@.   ",
"    X+O    X+O    ",
"     X+O  X+O     ",
"      X+OX+O      ",
"       o@@o       ",
"        oo        ",
"                  ",
"                  ",
"                  ",
"                  "
};
