/* XPM */
static char *stick_active[] = {
/* columns rows colors chars-per-pixel */
"18 18 13 1 ",
"  c #709080",
". c #90A299",
"X c #91A29A",
"o c #91A39A",
"O c #91A39B",
"+ c #A0ACA7",
"@ c #A1ACA7",
"# c #A1ADA7",
"$ c #A2ADA8",
"% c #B5B9B7",
"& c #B6B9B8",
"* c #B6BAB8",
"= c #B6BAB9",
/* pixels */
"                  ",
"                  ",
"                  ",
"           $$     ",
"          #==#    ",
"         #====#   ",
"        #=====#   ",
"     %X@=====@    ",
"     O%=====@     ",
"      o====#      ",
"      o*==+       ",
"     O&OO%O       ",
"    o&o  o%       ",
"    %.            ",
"                  ",
"                  ",
"                  ",
"                  "
};
