/* XPM */
static char *stick_pressed[] = {
/* columns rows colors chars-per-pixel */
"18 18 36 1 ",
"  c #709080",
". c #719080",
"X c #719081",
"o c #719181",
"O c #729182",
"+ c #799587",
"@ c #7A9688",
"# c #7B9689",
"$ c #819A8D",
"% c #819A8E",
"& c #829A8E",
"* c #839B8F",
"= c #839B90",
"- c #849C90",
"; c #859C91",
": c #859D91",
"> c #94A59D",
", c #95A69E",
"< c #96A69E",
"1 c #9AA8A1",
"2 c #9BA9A2",
"3 c #9CAAA3",
"4 c #A5AFAB",
"5 c #A6AFAB",
"6 c #A5B0AB",
"7 c #A6B0AC",
"8 c #ACB3AF",
"9 c #ACB3B0",
"0 c #ACB4B0",
"q c #B1B7B5",
"w c #B2B7B5",
"e c #B3B7B6",
"r c #B3B8B6",
"t c #B4B8B6",
"y c #B4B8B7",
"u c #B7BAB9",
/* pixels */
"     *30yy82=     ",
"   #7uuuuuuuu6@   ",
"  $euuuuuuuuuue%  ",
" #euuuuuuuu--uuw@ ",
" 5uuuuuuuu-..-uu7 ",
"*uuuuuuuu-....-uu*",
"2uuuuuuu-.....-uu2",
"0uuuuO>;.....;uuu8",
"tuuuu>X.....;uuuut",
"tuuuuu,....:uuuuur",
"0uuuuu,X..:uuuuuu9",
"3uuuu,o,,X,uuuuuu1",
"=uuu,o,uu,Ouuuuuu&",
" 4uuO<uuuuuuuuuu6 ",
" +quuuuuuuuuuuuw@ ",
"  %wuuuuuuuuuuw%  ",
"   @4uuuuuuuu5@   ",
"     *29tt92&     "
};
