/* XPM */
static char *stick_toggled_prelight[] = {
/* columns rows colors chars-per-pixel */
"18 18 35 1 ",
"  c #709080",
". c #759484",
"X c #819C8E",
"o c #829E90",
"O c #839E90",
"+ c #839F91",
"@ c #8BA497",
"# c #8BA498",
"$ c #8EA79B",
"% c #8FA89C",
"& c #91A99D",
"* c #92A99D",
"= c #92AA9E",
"- c #93AA9E",
"; c #B6C4BD",
": c #BCCAC3",
"> c #BDCAC3",
", c #BDCBC4",
"< c #BECBC4",
"1 c #CFD8D4",
"2 c #D0D8D4",
"3 c #D0D9D4",
"4 c #D0D9D5",
"5 c #D1D9D5",
"6 c #DBE1DF",
"7 c #DCE1DE",
"8 c #DCE2DF",
"9 c #E0E4E2",
"0 c #E6E8E7",
"q c #E7E9E8",
"w c #E7EAE9",
"e c #E9EBEA",
"r c #EAEBEB",
"t c #EAECEB",
"y c gray94",
/* pixels */
"     ->7tt8,=     ",
"   +3yyyyyyyy2O   ",
"  %wyyyyyyyyyyw$  ",
" +wyyy;@..@;yyyqo ",
" 1yy9#      #9yy3 ",
"-yyy#        #yyy*",
"<yy;          ;yy:",
"7yy@          @yy8",
"ryy.    55    .yyr",
"ryy.    55    .yye",
"7yy@          @yy6",
">yy;          ;yy:",
"=yyy#        #yyy&",
" 1yy9#      #9yy2 ",
" X0yyy;@..@;yyyqo ",
"  $qyyyyyyyyyyq$  ",
"   O4yyyyyyyy1o   ",
"     *:6rr6:&     "
};
