/* XPM */
static char * stick_toggled_inactive_xpm[] = {
"18 18 19 1",
" 	c None",
".	c #31363B",
"+	c #90969B",
"@	c #CCCFD2",
"#	c #E8E9EB",
"$	c #606971",
"%	c #C7CACD",
"&	c #EFF0F1",
"*	c #C8CBCD",
"=	c #8F959A",
"-	c #CCCFD1",
";	c #E8E9EA",
">	c #CBCED1",
",	c #8D9397",
"'	c #C6C9CC",
")	c #474E54",
"!	c #8C9296",
"~	c #CBCED0",
"{	c #E7E9EA",
"..................",
"..................",
"..................",
"......+@##@+......",
"....$%&&&&&&%$....",
"....*&&&&&&&&%....",
"...=&&&&&&&&&&=...",
"...-&&&&&&&&&&-...",
"...;&&&&..&&&&;...",
"...;&&&&..&&&&;...",
"...>&&&&&&&&&&>...",
"...,&&&&&&&&&&,...",
"....'&&&&&&&&'....",
"....)'&&&&&&')....",
"......!~{{~!......",
"..................",
"..................",
".................."};
