/* XPM */
static char *stick_prelight[] = {
/* columns rows colors chars-per-pixel */
"18 18 42 1 ",
"  c #709080",
". c #719181",
"X c #729181",
"o c #729282",
"O c #749383",
"+ c #819C8E",
"@ c #829E90",
"# c #839E90",
"$ c #839F91",
"% c #8EA79B",
"& c #8FA89C",
"* c #91A99D",
"= c #92A99D",
"- c #92AA9E",
"; c #93AA9E",
": c #94AB9F",
"> c #95ABA0",
", c #96ACA1",
"< c #96ADA1",
"1 c #B0C0B8",
"2 c #B1C1B9",
"3 c #B3C2BA",
"4 c #B3C2BB",
"5 c #B4C3BC",
"6 c #BCCAC3",
"7 c #BDCAC3",
"8 c #BDCBC4",
"9 c #BECBC4",
"0 c #CFD8D4",
"q c #D0D8D4",
"w c #D0D9D4",
"e c #D0D9D5",
"r c #DBE1DF",
"t c #DCE1DE",
"y c #DCE2DF",
"u c #E6E8E7",
"i c #E7E9E8",
"p c #E7EAE9",
"a c #E9EBEA",
"s c #EAEBEB",
"d c #EAECEB",
"f c gray94",
/* pixels */
"     ;7tddy8-     ",
"   $wffffffffq#   ",
"  &pffffffffffp%  ",
" $pffffffff::ffi@ ",
" 0ffffffff>..>ffw ",
";ffffffff>....>ff=",
"9fffffff>.....>ff6",
"tffffO1,.....,fffy",
"sffff2X.....,ffffs",
"sfffff3....<fffffa",
"tfffff3X..<ffffffr",
"7ffff4o44X4ffffff6",
"-fff4o4ff4Offffff*",
" 0ffO5ffffffffffq ",
" +uffffffffffffi@ ",
"  %iffffffffffi%  ",
"   #effffffff0@   ",
"     =6rssr6*     "
};
