/* XPM */
static char *stick_toggled_inactive[] = {
/* columns rows colors chars-per-pixel */
"18 18 8 1 ",
"  c gray21",
". c #383838",
"X c #515151",
"o c #555656",
"O c #868887",
"+ c #878988",
"@ c #ADB0AF",
"# c #B7BAB9",
/* pixels */
"                  ",
"                  ",
"                  ",
"      X+@@+X      ",
"    .O######O.    ",
"    O########O    ",
"   X##########X   ",
"   +##########+   ",
"   @####oo####@   ",
"   @####oo####@   ",
"   +##########+   ",
"   X##########X   ",
"    O########O    ",
"    .O######O.    ",
"      X+@@+X      ",
"                  ",
"                  ",
"                  "
};
