/* XPM */
static char *stick_toggled_pressed[] = {
/* columns rows colors chars-per-pixel */
"18 18 31 1 ",
"  c #709080",
". c #739282",
"X c #799587",
"o c #7A9688",
"O c #7B9689",
"+ c #7F998C",
"@ c #819A8D",
"# c #819A8E",
"$ c #829A8E",
"% c #839B8F",
"& c #839B90",
"* c #97A79F",
"= c #9AA8A1",
"- c #9BA9A2",
"; c #9CAAA3",
": c #A5AFAB",
"> c #A6AFAB",
", c #A5B0AB",
"< c #A6B0AB",
"1 c #A6B0AC",
"2 c #ACB3AF",
"3 c #ACB3B0",
"4 c #ACB4B0",
"5 c #AEB5B2",
"6 c #B1B7B5",
"7 c #B2B7B5",
"8 c #B3B7B6",
"9 c #B3B8B6",
"0 c #B4B8B6",
"q c #B4B8B7",
"w c #B7BAB9",
/* pixels */
"     %;4qq2-&     ",
"   O1wwwwwwww,o   ",
"  @8wwwwwwwwww8#  ",
" O8www*+..+*www7o ",
" >ww5+      +5ww1 ",
"%www+        +www%",
"-ww*          *ww-",
"4ww+          +ww2",
"0ww.    <<    .ww0",
"0ww.    <<    .ww9",
"4ww+          +ww3",
";ww*          *ww=",
"&www+        +www$",
" :ww5+      +5ww, ",
" X6www*+..+*www7o ",
"  #7wwwwwwwwww7#  ",
"   o:wwwwwwww>o   ",
"     %-3003-$     "
};
