/* XPM */
static char *stick_inactive[] = {
/* columns rows colors chars-per-pixel */
"18 18 13 1 ",
"  c gray21",
". c #595E5B",
"X c #5A5E5C",
"o c #5A5F5C",
"O c #5B5F5C",
"+ c #5B5F5D",
"@ c #5B605D",
"# c #6C726E",
"$ c #6C726F",
"% c #6C736F",
"& c #6D7370",
"* c #828B86",
"= c #838C87",
/* pixels */
"                  ",
"                  ",
"                  ",
"           &&     ",
"          %==%    ",
"         %====%   ",
"        %=====%   ",
"     *+#=====#    ",
"     @*=====#     ",
"      o====$      ",
"      o===$       ",
"     O=OO*O       ",
"    X=X  X*       ",
"    *.            ",
"                  ",
"                  ",
"                  ",
"                  "
};
