/* XPM */
static char * title_4_inactive_xpm[] = {
"5 29 3 1",
" 	c None",
".	c #363636",
"+	c #505B62",
".....",
".....",
".....",
".....",
".....",
".....",
".....",
".....",
".....",
".....",
".....",
".....",
".....",
".....",
".....",
".....",
".....",
".....",
".....",
".....",
".....",
".....",
".....",
".....",
".....",
".....",
".....",
".....",
"+++++"};
